<?xml version="1.0" encoding="utf-8"?>
<!-- Generator: Adobe Illustrator 27.2.0, SVG Export Plug-In . SVG Version: 6.00 Build 0)  -->
<svg version="1.1" id="Layer_1" xmlns="http://www.w3.org/2000/svg" xmlns:xlink="http://www.w3.org/1999/xlink" x="0px" y="0px"
	 viewBox="0 0 612 792" style="enable-background:new 0 0 612 792;" xml:space="preserve">
<g>
	<path d="M125.08,705.72c-0.5-0.46-0.76-1.08-0.76-1.85v-24.02c-3.82,5.01-9.36,7.51-16.62,7.51c-7.2,0-12.76-2.28-16.68-6.83
		C87.1,675.98,85,670,84.71,662.6l-0.11-3.81l0.11-3.81c0.29-7.55,2.37-13.56,6.26-18.04c3.89-4.48,9.46-6.72,16.73-6.72
		c7.56,0,13.31,2.61,17.27,7.83v-4.23c0-0.78,0.25-1.39,0.76-1.85c0.5-0.46,1.11-0.69,1.83-0.69h8.74c0.79,0,1.42,0.23,1.89,0.69
		c0.47,0.46,0.7,1.08,0.7,1.85v70.05c0,0.78-0.23,1.39-0.7,1.85c-0.47,0.46-1.1,0.69-1.89,0.69h-9.39
		C126.2,706.41,125.59,706.18,125.08,705.72z M120.93,672.23c2.12-2.47,3.26-5.47,3.4-9c0.07-0.92,0.11-2.29,0.11-4.13
		c0-1.83-0.04-3.17-0.11-4.02c-0.22-3.81-1.33-7-3.35-9.58c-2.02-2.57-5.07-3.86-9.18-3.86c-7.63,0-11.7,4.66-12.2,13.97
		c-0.07,0.71-0.11,1.76-0.11,3.17c0,1.41,0.04,2.47,0.11,3.17c0.5,9.31,4.57,13.97,12.2,13.97
		C115.76,675.93,118.81,674.7,120.93,672.23z"/>
	<path d="M161.03,681.01c-3.82-4.23-5.72-10.05-5.72-17.46v-29.74c0-0.78,0.25-1.39,0.76-1.85c0.5-0.46,1.12-0.69,1.84-0.69h9.72
		c0.72,0,1.33,0.25,1.83,0.74c0.5,0.49,0.76,1.09,0.76,1.8v29.1c0,8.68,3.85,13.02,11.55,13.02c3.74,0,6.71-1.16,8.91-3.49
		c2.19-2.33,3.29-5.5,3.29-9.52v-29.1c0-0.78,0.25-1.39,0.76-1.85c0.5-0.46,1.11-0.69,1.83-0.69h9.61c0.79,0,1.42,0.23,1.89,0.69
		c0.47,0.46,0.7,1.08,0.7,1.85v49.95c0,0.71-0.23,1.31-0.7,1.8c-0.47,0.5-1.1,0.74-1.89,0.74h-8.96c-0.72,0-1.33-0.25-1.83-0.74
		c-0.5-0.49-0.76-1.09-0.76-1.8v-4.34c-3.96,5.29-9.93,7.94-17.92,7.94C170.06,687.36,164.85,685.24,161.03,681.01z"/>
	<path d="M231.9,685.19c-3.06-1.45-5.47-3.4-7.23-5.87c-1.76-2.47-2.64-5.19-2.64-8.15c0-4.8,1.98-8.68,5.94-11.64
		c3.96-2.96,9.39-4.97,16.3-6.03l14.79-2.12v-2.22c0-3.03-0.79-5.33-2.38-6.88c-1.58-1.55-4.1-2.33-7.56-2.33
		c-2.38,0-4.28,0.42-5.72,1.27c-1.44,0.85-2.61,1.71-3.51,2.59c-0.9,0.88-1.49,1.46-1.78,1.75c-0.29,0.85-0.83,1.27-1.62,1.27h-8.42
		c-0.65,0-1.21-0.21-1.67-0.63c-0.47-0.42-0.7-0.99-0.7-1.69c0.07-1.76,0.95-3.76,2.65-5.98c1.69-2.22,4.3-4.16,7.83-5.82
		c3.53-1.66,7.88-2.49,13.06-2.49c8.49,0,14.68,1.87,18.57,5.61c3.89,3.74,5.83,8.64,5.83,14.71v33.23c0,0.71-0.23,1.31-0.7,1.8
		c-0.47,0.5-1.1,0.74-1.89,0.74h-8.96c-0.72,0-1.33-0.25-1.83-0.74c-0.5-0.49-0.76-1.09-0.76-1.8v-4.13
		c-1.58,2.26-3.81,4.11-6.69,5.56c-2.88,1.45-6.48,2.17-10.79,2.17C238.32,687.36,234.96,686.63,231.9,685.19z M255.38,673.39
		c2.52-2.54,3.78-6.21,3.78-11.01v-2.12l-10.79,1.69c-8.28,1.27-12.41,3.99-12.41,8.15c0,2.26,0.95,4,2.86,5.24
		c1.91,1.23,4.19,1.85,6.85,1.85C249.62,677.2,252.86,675.93,255.38,673.39z"/>
	<path d="M290.89,685.56c-0.5-0.49-0.76-1.09-0.76-1.8v-49.95c0-0.78,0.25-1.39,0.76-1.85c0.5-0.46,1.11-0.69,1.83-0.69h8.96
		c0.79,0,1.42,0.23,1.89,0.69c0.47,0.46,0.7,1.08,0.7,1.85v4.34c4.39-5.29,10.4-7.94,18.03-7.94c6.62,0,11.87,2.12,15.76,6.35
		c3.89,4.23,5.83,10.05,5.83,17.46v29.74c0,0.71-0.24,1.31-0.7,1.8c-0.47,0.5-1.1,0.74-1.89,0.74h-9.72c-0.72,0-1.33-0.25-1.83-0.74
		c-0.5-0.49-0.76-1.09-0.76-1.8v-29.1c0-4.09-1.03-7.28-3.08-9.58c-2.05-2.29-4.98-3.44-8.8-3.44c-3.67,0-6.62,1.16-8.85,3.49
		c-2.23,2.33-3.35,5.5-3.35,9.52v29.1c0,0.71-0.23,1.31-0.7,1.8c-0.47,0.5-1.1,0.74-1.89,0.74h-9.61
		C292.01,686.3,291.4,686.05,290.89,685.56z"/>
	<path d="M370.34,681.27c-3.31-3.35-4.97-8.27-4.97-14.76V642.6h-8.53c-0.72,0-1.33-0.25-1.84-0.74c-0.5-0.49-0.75-1.09-0.75-1.8
		v-6.24c0-0.7,0.25-1.3,0.75-1.8c0.5-0.49,1.12-0.74,1.84-0.74h8.53v-17.57c0-0.78,0.25-1.39,0.76-1.85
		c0.5-0.46,1.12-0.69,1.83-0.69h8.96c0.79,0,1.42,0.23,1.89,0.69c0.47,0.46,0.7,1.08,0.7,1.85v17.57h13.49
		c0.72,0,1.33,0.25,1.84,0.74c0.5,0.49,0.75,1.09,0.75,1.8v6.24c0,0.71-0.25,1.31-0.75,1.8c-0.5,0.5-1.12,0.74-1.84,0.74h-13.49
		v22.75c0,3.03,0.54,5.33,1.62,6.88c1.08,1.55,2.84,2.33,5.29,2.33h7.56c0.79,0,1.42,0.23,1.89,0.69c0.47,0.46,0.7,1.08,0.7,1.85
		v6.67c0,0.71-0.23,1.31-0.7,1.8c-0.47,0.5-1.1,0.74-1.89,0.74h-8.85C378.58,686.3,373.65,684.63,370.34,681.27z"/>
	<path d="M414.22,680.9c-4.71-4.3-7.22-10.26-7.5-17.88l-0.11-4.23l0.11-4.23c0.29-7.62,2.79-13.58,7.5-17.88
		c4.71-4.3,11.03-6.46,18.95-6.46c5.68,0,10.49,0.99,14.41,2.96c3.92,1.98,6.84,4.39,8.74,7.25c1.91,2.86,2.93,5.59,3.08,8.2
		c0.07,0.71-0.16,1.31-0.7,1.8c-0.54,0.49-1.17,0.74-1.89,0.74h-9.61c-0.79,0-1.37-0.16-1.73-0.48c-0.36-0.32-0.72-0.9-1.08-1.75
		c-1.08-2.68-2.5-4.62-4.26-5.82c-1.76-1.2-4.01-1.8-6.75-1.8c-3.67,0-6.53,1.13-8.58,3.39c-2.05,2.26-3.15,5.71-3.29,10.37
		L421.4,659l0.11,3.49c0.43,9.17,4.39,13.76,11.87,13.76c2.81,0,5.07-0.58,6.8-1.75c1.73-1.16,3.13-3.12,4.21-5.87
		c0.29-0.78,0.63-1.34,1.03-1.69c0.4-0.35,0.99-0.53,1.78-0.53h9.61c0.72,0,1.35,0.25,1.89,0.74c0.54,0.49,0.77,1.09,0.7,1.8
		c-0.14,2.47-1.15,5.13-3.02,7.99c-1.87,2.86-4.75,5.31-8.64,7.35c-3.89,2.05-8.74,3.07-14.57,3.07
		C425.25,687.36,418.94,685.21,414.22,680.9z"/>
	<path d="M478.62,681.01c-4.61-4.23-7.09-10.09-7.45-17.57l-0.11-4.66l0.11-4.66c0.36-7.41,2.88-13.24,7.56-17.51
		c4.68-4.27,11.19-6.4,19.54-6.4c8.28,0,14.75,2.13,19.43,6.4c4.68,4.27,7.2,10.11,7.56,17.51c0.07,0.85,0.11,2.4,0.11,4.66
		c0,2.26-0.04,3.81-0.11,4.66c-0.36,7.48-2.84,13.33-7.45,17.57c-4.61,4.23-11.12,6.35-19.54,6.35
		C489.77,687.36,483.22,685.24,478.62,681.01z M507.06,673.18c2.05-2.33,3.15-5.75,3.29-10.26c0.07-0.7,0.11-2.08,0.11-4.13
		c0-2.04-0.04-3.42-0.11-4.13c-0.15-4.51-1.26-7.95-3.35-10.32c-2.09-2.36-5-3.54-8.74-3.54c-3.82,0-6.76,1.18-8.85,3.54
		c-2.09,2.36-3.2,5.8-3.35,10.32l-0.11,4.13l0.11,4.13c0.14,4.52,1.26,7.94,3.35,10.26c2.09,2.33,5.04,3.49,8.85,3.49
		C502.08,676.67,505.01,675.51,507.06,673.18z"/>
</g>
<path d="M425.16,467.94c-5.51-6.97-10.86-13.73-16.2-20.49c-9.74-12.33-19.46-24.67-29.21-36.98c-0.82-1.03-1.27-1.76-0.37-3.15
	c9.19-14.27,13.96-30.16,16.88-46.7c2.87-16.24,3.98-32.64,3.92-49.09c-0.07-17.09-0.18-34.2-1.12-51.25
	c-1.1-19.98-4.52-39.63-13.07-57.97c-13.5-28.96-36.75-45.28-67.82-50.12c-29.12-4.54-54.99,3.53-76.85,23.38
	c-12.19,11.06-19.48,25.28-24.32,40.82c-5.6,18.01-7.95,36.56-8.32,55.32c-0.38,19.03-0.49,38.09,0.11,57.12
	c0.68,21.54,3.57,42.84,12.1,62.91c13.02,30.66,36.63,47.9,69.04,53.56c13.41,2.34,26.74,1.51,39.82-2.45
	c1.11-0.34,1.85-0.29,2.67,0.76c14.82,18.89,29.69,37.75,44.54,56.61c0.1,0.12,0.14,0.29,0.34,0.7c-0.77,0.36-1.53,0.73-2.32,1.06
	c-21.91,9.11-44.77,13.42-68.46,13.67c-26.31,0.28-51.7-4.16-75.7-15.1c-44.64-20.35-73.64-54.61-88.56-101.06
	c-5.57-17.35-8.64-35.25-9.75-53.4c-1.05-17.21-1.75-34.46-1.82-51.7c-0.09-22.3,1.03-44.57,4.66-66.64
	c5.15-31.26,15.93-60.1,36.03-85.03c22.71-28.15,51.66-46.56,86.68-55.22c40.84-10.1,80.9-7.54,119.59,9.43
	c33.87,14.86,59.02,39.32,76.42,71.84c10.25,19.14,15.97,39.76,19.32,61.1c2.82,17.96,3.86,36.06,4.21,54.22
	c0.41,21.33,0.17,42.65-1.76,63.91c-2.47,27.24-8.01,53.71-20.49,78.34C447.56,441.7,437.51,455.43,425.16,467.94z"/>
</svg>
